<?xml version="1.0" standalone="no"?>
<!DOCTYPE svg PUBLIC "-//W3C//DTD SVG 20010904//EN"
 "http://www.w3.org/TR/2001/REC-SVG-20010904/DTD/svg10.dtd">
<svg version="1.0" xmlns="http://www.w3.org/2000/svg"
 width="1600.000000pt" height="397.000000pt" viewBox="0 0 1600.000000 397.000000"
 preserveAspectRatio="xMidYMid meet">

<g transform="translate(0.000000,397.000000) scale(0.100000,-0.100000)"
fill="#000000" stroke="none">
<path d="M5405 3963 c-103 -8 -201 -26 -264 -48 -394 -134 -619 -487 -598
-939 13 -299 106 -523 282 -684 111 -102 246 -167 416 -203 90 -18 126 -20
269 -16 177 6 260 21 381 72 163 69 300 195 385 355 42 77 68 150 58 160 -5 4
-103 32 -217 62 l-208 55 -16 -31 c-108 -213 -407 -291 -622 -163 -265 159
-310 598 -85 832 36 38 77 67 131 93 75 36 82 37 188 37 106 0 113 -1 185 -36
85 -40 155 -104 197 -179 15 -28 33 -50 38 -50 10 0 378 96 403 105 9 3 8 17
-7 56 -35 92 -103 192 -185 274 -158 156 -348 233 -616 248 -41 2 -93 2 -115
0z"/>
<path d="M13190 3964 c-191 -21 -304 -54 -421 -120 -198 -112 -340 -300 -405
-540 -25 -90 -27 -115 -28 -279 0 -155 3 -193 23 -275 90 -365 316 -587 672
-660 86 -18 128 -21 239 -17 152 5 230 25 336 87 78 46 198 166 214 214 6 20
17 35 23 33 9 -3 11 -44 8 -145 l-3 -142 156 0 156 0 0 500 0 500 -464 0 -465
0 -3 -137 c-2 -76 -2 -153 0 -170 l3 -33 240 0 c131 0 239 -3 239 -7 0 -3 -14
-28 -31 -54 -80 -125 -221 -199 -381 -199 -266 0 -449 191 -465 485 -18 323
195 559 491 543 73 -4 95 -10 160 -42 85 -41 160 -110 197 -181 13 -25 28 -45
34 -45 10 0 378 96 403 105 17 6 -13 84 -68 176 -124 209 -345 351 -600 388
-94 13 -214 20 -260 15z"/>
<path d="M0 1980 l0 -1940 1940 0 1940 0 0 1940 0 1940 -1940 0 -1940 0 0
-1940z m2059 1120 c391 -40 736 -286 906 -647 132 -278 138 -620 16 -914 -72
-172 -246 -385 -398 -488 -393 -263 -895 -263 -1280 1 -255 174 -453 496 -479
777 -3 36 -7 82 -9 101 -7 69 16 266 40 352 137 479 561 808 1066 827 20 0 82
-4 138 -9z"/>
<path d="M1399 2531 c-77 -25 -151 -66 -193 -110 l-36 -37 448 -446 c337 -336
459 -452 497 -471 162 -81 348 -76 490 14 59 37 105 78 105 94 0 20 -878 878
-928 908 -112 66 -267 85 -383 48z"/>
<path d="M6540 3015 l0 -905 235 0 235 0 1 308 c1 169 2 316 3 327 1 20 9 20
344 23 l342 2 0 -330 0 -330 235 0 235 0 0 905 0 905 -235 0 -235 0 0 -365 0
-365 -342 2 -343 3 -2 360 -2 360 -236 3 -235 2 0 -905z"/>
<path d="M9035 3833 c-20 -49 -107 -254 -192 -458 -85 -203 -183 -437 -218
-520 -35 -82 -104 -249 -155 -370 -50 -121 -105 -250 -121 -287 -16 -36 -29
-71 -29 -77 0 -8 80 -11 260 -11 l259 0 14 28 c8 15 31 75 52 135 l38 107 353
0 353 0 14 -27 c8 -16 31 -76 52 -135 l38 -108 263 0 c145 0 264 3 264 6 0 5
-117 287 -487 1169 -86 204 -180 430 -211 503 l-55 132 -227 0 -228 0 -37 -87z
m287 -504 c4 -30 48 -166 98 -304 50 -137 92 -254 93 -260 2 -12 -413 -19
-424 -8 -3 5 9 51 28 103 20 52 62 166 94 252 31 86 61 179 64 205 9 65 13 75
28 71 6 -3 15 -29 19 -59z"/>
<path d="M10432 3018 l3 -903 233 -3 233 -2 -3 570 c-3 485 -1 570 11 568 8
-2 20 -20 27 -41 8 -21 86 -150 176 -285 354 -540 465 -709 498 -760 l34 -52
240 2 241 3 3 903 2 902 -240 0 -239 0 -1 -477 c0 -281 4 -513 10 -562 9 -67
8 -86 -2 -92 -9 -6 -19 6 -34 40 -23 51 -29 60 -299 471 -92 140 -221 337
-287 438 l-120 182 -244 0 -244 0 2 -902z"/>
<path d="M14450 3015 l0 -905 775 0 775 0 0 220 0 220 -540 0 -540 0 0 130 0
130 393 1 c215 1 400 1 410 0 16 -2 17 13 17 188 l0 191 -410 0 -410 0 0 150
0 150 540 0 540 0 0 215 0 215 -775 0 -775 0 0 -905z"/>
<path d="M5275 1874 c-434 -76 -711 -404 -732 -869 -24 -522 247 -905 703
-990 127 -24 407 -17 519 14 108 29 246 99 322 162 103 85 220 260 248 371 6
25 4 28 -37 38 -86 22 -304 82 -332 91 -46 15 -54 11 -80 -33 -29 -50 -105
-126 -156 -156 -129 -76 -335 -71 -464 12 -136 87 -211 226 -223 413 -22 332
226 588 525 544 133 -20 247 -95 317 -211 l35 -58 93 24 c216 57 318 87 322
94 9 15 -96 208 -148 271 -91 110 -224 198 -374 248 -148 50 -372 64 -538 35z"/>
<path d="M6540 945 l0 -905 550 0 550 0 0 210 0 210 -312 2 -313 3 -3 680 c-1
374 -2 686 -2 693 0 9 -54 12 -235 12 l-235 0 0 -905z"/>
<path d="M7920 945 l0 -905 235 0 235 0 -2 903 -3 902 -232 3 -233 2 0 -905z"/>
<path d="M8740 945 l0 -905 235 0 235 0 -1 608 c0 334 -4 628 -8 655 -7 40 -5
47 9 47 12 0 21 -17 34 -62 22 -81 66 -197 342 -895 l139 -353 96 0 96 0 15
38 c8 20 72 181 141 357 69 176 163 412 208 525 45 113 94 246 109 295 20 64
33 91 45 94 15 2 16 -1 10 -20 -5 -13 -10 -309 -12 -657 l-4 -632 235 0 236 0
0 905 0 905 -354 0 -353 0 -66 -177 c-36 -98 -112 -299 -168 -448 -56 -148
-106 -296 -113 -327 -8 -42 -15 -58 -27 -58 -12 0 -18 13 -22 49 -3 26 -82
252 -176 502 l-170 454 -355 3 -356 2 0 -905z"/>
<path d="M11817 1838 c-3 -7 -53 -128 -112 -268 -59 -140 -117 -280 -130 -310
-29 -71 -251 -601 -394 -939 -61 -145 -111 -267 -111 -272 0 -5 116 -9 263 -9
l263 0 46 127 46 128 360 3 360 2 45 -127 45 -128 266 -3 c146 -1 266 -1 266
1 0 4 -88 215 -385 922 -109 259 -232 554 -275 656 -43 103 -83 196 -89 208
-11 20 -18 21 -235 21 -170 0 -225 -3 -229 -12z m256 -585 c4 -37 39 -150 100
-313 l94 -255 -215 -3 c-118 -1 -217 -1 -218 1 -2 2 38 119 90 260 52 141 98
282 101 312 6 43 11 55 25 55 14 0 18 -12 23 -57z"/>
<path d="M12704 1833 c33 -85 171 -411 179 -420 7 -10 62 -13 213 -13 l204 0
0 -22 c0 -13 1 -318 3 -678 l2 -655 238 -3 237 -2 0 680 0 680 230 0 230 0 0
225 0 225 -771 0 c-716 0 -771 -1 -765 -17z"/>
<path d="M14450 945 l0 -905 775 0 775 0 0 215 0 215 -540 0 -540 0 0 135 0
135 410 0 410 0 0 190 0 190 -410 0 -411 0 3 148 c3 122 6 147 18 148 8 1 250
2 538 3 l522 1 0 215 0 215 -775 0 -775 0 0 -905z"/>
</g>
</svg>
