<?xml version="1.0" standalone="no"?>
<!DOCTYPE svg PUBLIC "-//W3C//DTD SVG 20010904//EN"
 "http://www.w3.org/TR/2001/REC-SVG-20010904/DTD/svg10.dtd">
<svg version="1.0" xmlns="http://www.w3.org/2000/svg"
 width="466.000000pt" height="156.000000pt" viewBox="0 0 466.000000 156.000000"
 preserveAspectRatio="xMidYMid meet">

<g transform="translate(0.000000,156.000000) scale(0.100000,-0.100000)"
fill="#000000" stroke="none">
<path d="M0 780 l0 -780 2330 0 2330 0 0 780 0 780 -2330 0 -2330 0 0 -780z
m1854 449 c40 -19 96 -80 96 -105 0 -6 -20 -15 -44 -21 -41 -9 -45 -8 -79 24
-28 25 -46 33 -74 33 -80 0 -141 -72 -130 -153 7 -51 33 -87 81 -111 32 -16
44 -17 76 -7 22 6 47 22 58 35 17 23 21 23 65 13 53 -12 55 -18 27 -64 -45
-74 -165 -111 -270 -83 -57 15 -124 80 -139 135 -38 137 9 260 119 312 43 20
164 16 214 -8z m2006 -1 c41 -21 106 -96 94 -108 -3 -2 -24 -10 -47 -17 -40
-12 -43 -12 -62 11 -41 48 -103 60 -154 30 -127 -75 -51 -294 88 -254 34 9 81
46 81 62 0 4 -27 8 -60 8 l-60 0 0 40 0 40 115 0 115 0 0 -125 0 -125 -35 0
c-34 0 -35 1 -35 43 l-1 42 -27 -32 c-86 -102 -270 -74 -333 50 -65 126 -16
290 101 341 55 24 167 21 220 -6z m-2540 -478 l0 -490 -490 0 -490 0 0 490 0
490 490 0 490 0 0 -490z m810 400 l0 -90 95 0 95 0 0 90 0 90 55 0 55 0 -2
-222 -3 -223 -52 -3 -53 -3 0 85 0 86 -95 0 -95 0 0 -85 0 -85 -55 0 -55 0 0
225 0 225 55 0 55 0 0 -90z m690 -5 c119 -282 140 -334 140 -344 0 -7 -23 -11
-58 -11 -57 0 -58 0 -71 35 l-12 35 -95 0 -94 0 -14 -35 c-15 -34 -17 -35 -70
-35 -43 0 -56 4 -56 15 0 8 18 56 39 107 114 268 131 310 131 319 0 6 25 9 61
7 l61 -3 38 -90z m405 -36 c48 -73 89 -138 92 -145 14 -37 18 -1 15 131 l-4
145 61 0 61 0 -2 -222 -3 -223 -60 0 -59 0 -91 142 c-49 78 -93 142 -97 142
-5 1 -8 -64 -8 -144 l0 -145 -55 0 -55 0 0 225 0 225 59 0 60 0 86 -131z
m1215 86 l0 -44 -137 -3 -138 -3 -3 -42 -3 -43 105 0 106 0 0 -45 0 -45 -105
0 -105 0 0 -40 0 -40 140 0 140 0 0 -50 0 -50 -192 2 -193 3 -3 223 -2 222
195 0 195 0 0 -45z m-2615 -486 c41 -11 125 -87 125 -113 0 -8 -19 -19 -46
-25 -43 -11 -47 -10 -64 12 -46 59 -128 59 -179 2 -40 -46 -48 -93 -26 -151
21 -56 55 -79 116 -79 39 0 53 5 78 29 28 27 34 28 73 20 55 -12 59 -31 16
-80 -45 -51 -99 -74 -176 -74 -146 0 -232 86 -232 235 0 80 21 134 68 178 55
52 156 71 247 46z m307 -176 l3 -177 60 -1 c100 -2 95 0 95 -50 l0 -45 -135 0
-135 0 0 225 0 225 55 0 55 0 2 -177z m348 -48 l0 -225 -55 0 -55 0 0 225 0
225 55 0 55 0 0 -225z m300 168 c12 -32 33 -91 48 -130 26 -71 42 -91 42 -55
1 9 20 67 43 127 l43 110 87 3 87 3 0 -226 0 -225 -55 0 -55 0 0 165 c0 103
-4 165 -10 165 -5 0 -10 -6 -10 -12 0 -7 -27 -82 -61 -165 -81 -204 -84 -204
-159 -11 -30 78 -59 155 -63 171 -15 55 -21 16 -21 -146 l-1 -162 -55 0 -55 0
-3 210 c-1 115 0 215 2 222 4 9 31 13 90 13 l85 0 21 -57z m792 -150 c48 -115
90 -216 94 -225 5 -16 -1 -18 -53 -18 -58 0 -60 1 -76 35 l-17 35 -90 0 -91 0
-15 -35 c-14 -34 -15 -35 -74 -35 -33 0 -60 1 -60 3 0 2 39 95 86 208 47 112
88 212 91 222 4 13 17 17 62 17 l57 0 86 -207z m418 157 l0 -50 -60 0 -60 0 0
-175 0 -175 -55 0 -55 0 0 175 0 175 -55 0 c-58 0 -68 9 -89 78 l-7 22 190 0
191 0 0 -50z m450 0 l0 -50 -141 0 -140 0 3 -42 3 -43 103 -3 102 -3 0 -39 0
-40 -105 0 -105 0 0 -40 0 -40 140 0 140 0 0 -50 0 -50 -195 0 -195 0 0 225 0
225 195 0 195 0 0 -50z"/>
<path d="M770 1045 c-75 -15 -110 -35 -163 -95 -134 -149 -89 -377 93 -471 37
-20 60 -24 130 -24 73 0 92 4 136 27 112 59 170 164 162 292 -8 116 -69 205
-172 251 -65 29 -117 35 -186 20z m3 -166 c26 -13 237 -220 237 -232 0 -4 -16
-15 -36 -23 -28 -12 -43 -13 -68 -4 -37 12 -259 227 -250 242 16 25 82 35 117
17z"/>
<path d="M2716 1109 c-2 -8 -15 -46 -29 -85 -14 -40 -23 -75 -20 -78 12 -12
113 -6 113 6 0 12 -49 160 -56 167 -2 2 -5 -2 -8 -10z"/>
<path d="M3400 508 c-14 -40 -26 -79 -28 -85 -3 -9 14 -13 57 -13 34 0 61 3
61 8 0 14 -55 162 -60 162 -3 0 -17 -33 -30 -72z"/>
</g>
</svg>
